<svg width="25" height="25" viewBox="0 0 25 25" fill="none" xmlns="http://www.w3.org/2000/svg">
<g clip-path="url(#clip0_1_216)">
<path fill-rule="evenodd" clip-rule="evenodd" d="M12.5 4.25C12.9142 4.25 13.25 4.58579 13.25 5V11.75H20C20.4142 11.75 20.75 12.0858 20.75 12.5C20.75 12.9142 20.4142 13.25 20 13.25H13.25V20C13.25 20.4142 12.9142 20.75 12.5 20.75C12.0858 20.75 11.75 20.4142 11.75 20V13.25H5C4.58579 13.25 4.25 12.9142 4.25 12.5C4.25 12.0858 4.58579 11.75 5 11.75H11.75V5C11.75 4.58579 12.0858 4.25 12.5 4.25Z" fill="white"/>
</g>
<defs>
<clipPath id="clip0_1_216">
<rect width="24" height="24" fill="white" transform="translate(0.5 0.5)"/>
</clipPath>
</defs>
</svg>
