<svg width="18" height="18" viewBox="0 0 18 18" fill="none" xmlns="http://www.w3.org/2000/svg">
<path fill-rule="evenodd" clip-rule="evenodd" d="M7.12905 1.86871L7.31857 1.83893C10.5392 1.33284 12.1495 1.07979 13.1997 1.97791C14.25 2.87603 14.25 4.50609 14.25 7.76619V7.99971H10.3306L12.0309 5.8744L10.4691 4.62501L7.46913 8.37501L6.96938 8.99971L7.46913 9.6244L10.4691 13.3744L12.0309 12.125L10.3306 9.99971H14.25V10.2332C14.25 13.4933 14.25 15.1234 13.1997 16.0215C12.1495 16.9196 10.5392 16.6666 7.31857 16.1605L7.12905 16.1307C5.51632 15.8773 4.70995 15.7506 4.22998 15.1893C3.75 14.628 3.75 13.8117 3.75 12.1792V5.82022C3.75 4.1877 3.75 3.37144 4.22998 2.81015C4.70995 2.24886 5.51632 2.12214 7.12905 1.86871Z" fill="#222222"/>
</svg>
