<svg width="129" height="75" viewBox="0 0 129 75" fill="none" xmlns="http://www.w3.org/2000/svg">
<g clip-path="url(#clip0_229_368)">
<path d="M23.6667 7.08004H18.4035C16.7779 7.08004 15.2835 5.99387 14.9701 4.39743C14.5327 2.22509 16.1802 0.322479 18.2796 0.322479H23.5428C25.1684 0.322479 26.6628 1.40865 26.9762 3.00509C27.4136 5.17743 25.7588 7.08733 23.6667 7.08733V7.08004ZM24.002 30.0426C23.6813 28.4462 22.1869 27.36 20.5686 27.36H15.4366C13.811 27.36 12.3166 28.4462 12.0032 30.0426C11.5658 32.215 13.2205 34.1176 15.3127 34.1176H20.6998C22.7919 34.1176 24.4467 32.215 24.0093 30.0426H24.002ZM24.002 70.6026C23.6813 69.0061 22.1869 67.92 20.5686 67.92H15.4293C13.8037 67.92 12.3093 69.0061 11.9959 70.6026C11.5585 72.7749 13.2133 74.6775 15.3054 74.6775H20.6925C22.7846 74.6775 24.4394 72.7749 24.002 70.6026ZM101.951 74.6775C106.252 74.6775 110.217 72.3813 112.368 68.6635L126.889 43.514C129.039 39.789 129.039 35.2037 126.889 31.486L112.368 6.33649C110.217 2.61874 106.245 0.322479 101.951 0.322479H34.8637C32.9975 0.322479 31.4813 1.83874 31.4813 3.7049C31.4813 5.57107 32.9975 7.08733 34.8637 7.08733H36.0592C37.6848 7.08733 39.1792 8.1735 39.4927 9.76994C39.93 11.9423 38.2753 13.8522 36.1831 13.8522H22.1067C20.2405 13.8522 18.7243 15.3684 18.7243 17.2346C18.7243 19.1008 20.2405 20.617 22.1067 20.617H45.8274C47.6936 20.617 49.2098 22.1333 49.2098 23.9995C49.2098 25.8656 47.6936 27.3819 45.8274 27.3819H32.254C30.6284 27.3819 29.134 28.468 28.8205 30.0645C28.3831 32.2368 30.0379 34.1394 32.13 34.1394H33.7046C35.5708 34.1394 37.0871 35.6557 37.0871 37.5219C37.0871 39.388 35.5708 40.9043 33.7046 40.9043H4.00635C2.38075 40.9043 0.886355 41.9905 0.572897 43.5869C0.135515 45.7592 1.79028 47.6619 3.88243 47.6619H37.5828C39.4489 47.6619 40.9652 49.1781 40.9652 51.0443C40.9652 52.9104 39.4489 54.4267 37.5828 54.4267H20.831C18.9648 54.4267 17.4486 55.943 17.4486 57.8091C17.4486 59.6753 18.9648 61.1916 20.831 61.1916H44.4424C46.068 61.1916 47.5624 62.2777 47.8758 63.8742C48.3132 66.0465 46.6584 67.9491 44.5663 67.9491H32.13C30.2639 67.9491 28.7476 69.4654 28.7476 71.3315C28.7476 73.1977 30.2639 74.714 32.13 74.714H72.916H101.951V74.6775Z" fill="url(#paint0_linear_229_368)"/>
<path d="M96.5638 9.19406H78.3031C73.8418 9.19406 69.7231 11.5705 67.4924 15.434L58.3584 31.2527C56.1278 35.1163 56.1278 39.8764 58.3584 43.74L67.4924 59.5587C69.7231 63.4222 73.8418 65.7987 78.3031 65.7987H96.5638C101.025 65.7987 105.144 63.4222 107.374 59.5587L116.508 43.74C118.739 39.8764 118.739 35.1163 116.508 31.2527L107.374 15.434C105.144 11.5705 101.025 9.19406 96.5638 9.19406Z" fill="url(#paint1_linear_229_368)"/>
<path d="M75.1539 20.4129L67.9371 32.8127C66.2678 35.7067 66.4136 39.4974 68.0829 42.3987L75.1539 54.5798C76.8233 57.4738 80.1328 59.2598 83.4788 59.2598H97.4677C100.814 59.2598 104.131 57.4738 105.8 54.5798L112.871 42.3987C114.54 39.5047 114.693 35.714 113.017 32.8127L105.8 20.4129C104.131 17.5189 100.821 15.7329 97.475 15.7329H83.486C80.1401 15.7329 76.8233 17.5189 75.1539 20.4129Z" fill="url(#paint2_linear_229_368)"/>
<path d="M82.8227 25.3918L77.5231 34.38C76.4078 36.3118 76.7066 39.1256 77.822 41.0574L82.8227 49.6082C83.938 51.54 86.4311 52.7282 88.6618 52.7282H98.3789C100.61 52.7282 103.117 51.54 104.233 49.6082L109.233 41.0574C110.349 39.1256 110.648 36.3118 109.532 34.38L104.233 25.3918C103.117 23.46 100.624 22.2718 98.3935 22.2718H88.6763C86.4457 22.2718 83.938 23.46 82.8227 25.3918Z" fill="url(#paint3_linear_229_368)"/>
<path d="M90.4842 30.3707L87.1018 35.94C86.5477 36.9022 86.9924 38.7465 87.5464 39.7161L90.4842 44.6293C91.0382 45.5916 92.7221 46.1893 93.8374 46.1893H99.2829C100.398 46.1893 102.104 45.5916 102.658 44.6293L105.596 39.7161C106.15 38.7538 106.602 36.9095 106.04 35.94L102.658 30.3707C102.104 29.4084 100.42 28.8107 99.3047 28.8107H93.8593C92.744 28.8107 91.0382 29.4084 90.4842 30.3707Z" fill="url(#paint4_linear_229_368)"/>
<path d="M101.091 35.3422H98.153L96.6877 37.5L98.153 39.6577H101.091L102.563 37.5L101.091 35.3422Z" fill="#1F3C54"/>
</g>
<defs>
<linearGradient id="paint0_linear_229_368" x1="128.5" y1="37.5" x2="0.500004" y2="37.5" gradientUnits="userSpaceOnUse">
<stop stop-color="#EC7B6A"/>
<stop offset="0.3" stop-color="#EDA67A"/>
<stop offset="0.6" stop-color="#EECA88"/>
<stop offset="0.84" stop-color="#EFE090"/>
<stop offset="1" stop-color="#F0E994"/>
</linearGradient>
<linearGradient id="paint1_linear_229_368" x1="56.6818" y1="37.5" x2="118.178" y2="37.5" gradientUnits="userSpaceOnUse">
<stop stop-color="white"/>
<stop offset="0.29" stop-color="#FFFBF9"/>
<stop offset="0.67" stop-color="#FFEFE9"/>
<stop offset="1" stop-color="#FFE2D5"/>
</linearGradient>
<linearGradient id="paint2_linear_229_368" x1="66.7562" y1="37.5" x2="114.205" y2="37.5" gradientUnits="userSpaceOnUse">
<stop stop-color="#C7CED4"/>
<stop offset="0.35" stop-color="#C7CACE"/>
<stop offset="0.81" stop-color="#C7BFBE"/>
<stop offset="1" stop-color="#C7B9B5"/>
</linearGradient>
<linearGradient id="paint3_linear_229_368" x1="76.816" y1="37.5" x2="110.239" y2="37.5" gradientUnits="userSpaceOnUse">
<stop stop-color="#8F9EAA"/>
<stop offset="0.45" stop-color="#8F99A4"/>
<stop offset="1" stop-color="#8F8F95"/>
</linearGradient>
<linearGradient id="paint4_linear_229_368" x1="86.8466" y1="37.5" x2="106.303" y2="37.5" gradientUnits="userSpaceOnUse">
<stop stop-color="#576D7F"/>
<stop offset="0.67" stop-color="#576979"/>
<stop offset="1" stop-color="#576674"/>
</linearGradient>
<clipPath id="clip0_229_368">
<rect width="128" height="74.355" fill="white" transform="translate(0.5 0.322479)"/>
</clipPath>
</defs>
</svg>
