<svg width="26" height="24" viewBox="0 0 26 24" fill="none" xmlns="http://www.w3.org/2000/svg">
<path d="M11.1716 2.50495L12.0555 1.62106L12.0555 1.62106L11.1716 2.50495ZM12.8284 4.1618L13.7123 3.27792L13.7123 3.27792L12.8284 4.1618ZM22.7475 5.91916L21.8637 6.80304L21.8637 6.80304L22.7475 5.91916ZM14.0631 5.18113L14.5414 4.02628L14.5414 4.02628L14.0631 5.18113ZM23.5505 19.7828C23.0624 19.2947 22.2709 19.2947 21.7828 19.7828C21.2946 20.271 21.2946 21.0624 21.7828 21.5506L23.5505 19.7828ZM23.7828 23.5506C24.2709 24.0387 25.0624 24.0387 25.5505 23.5506C26.0387 23.0624 26.0387 22.271 25.5505 21.7828L23.7828 23.5506ZM3.25 16V5.33337H0.75V16H3.25ZM15.6569 6.58337H19.3333V4.08337H15.6569V6.58337ZM6 2.58337H8.34315V0.083374H6V2.58337ZM10.2877 3.38883L11.9445 5.04569L13.7123 3.27792L12.0555 1.62106L10.2877 3.38883ZM22.0833 9.33337V10.6667H24.5833V9.33337H22.0833ZM11.3333 18.75H6V21.25H11.3333V18.75ZM8.34315 2.58337C9.26264 2.58337 9.37417 2.6055 9.45859 2.64046L10.4153 0.330765C9.76462 0.0612483 9.05866 0.083374 8.34315 0.083374V2.58337ZM12.0555 1.62106C11.5495 1.11512 11.066 0.600283 10.4153 0.330765L9.45859 2.64046C9.543 2.67543 9.63751 2.73865 10.2877 3.38883L12.0555 1.62106ZM19.3333 6.58337C20.3115 6.58337 20.9193 6.58603 21.3613 6.64545C21.7673 6.70004 21.8417 6.78111 21.8637 6.80304L23.6314 5.03528C23.0676 4.47142 22.3777 4.2596 21.6944 4.16774C21.0472 4.08072 20.2408 4.08337 19.3333 4.08337V6.58337ZM24.5833 9.33337C24.5833 8.4259 24.586 7.61955 24.499 6.97227C24.4071 6.28903 24.1953 5.59913 23.6314 5.03528L21.8637 6.80304C21.8856 6.82498 21.9667 6.89937 22.0213 7.30539C22.0807 7.74737 22.0833 8.35523 22.0833 9.33337H24.5833ZM0.75 16C0.75 16.9075 0.747345 17.7139 0.83437 18.3611C0.926229 19.0444 1.13805 19.7343 1.7019 20.2981L3.46967 18.5304C3.44774 18.5084 3.36666 18.434 3.31208 18.028C3.25265 17.586 3.25 16.9782 3.25 16H0.75ZM6 18.75C5.02185 18.75 4.41399 18.7474 3.97202 18.688C3.566 18.6334 3.4916 18.5523 3.46967 18.5304L1.7019 20.2981C2.26576 20.862 2.95566 21.0738 3.6389 21.1657C4.28618 21.2527 5.09253 21.25 6 21.25V18.75ZM15.6569 4.08337C14.7374 4.08337 14.6258 4.06125 14.5414 4.02628L13.5847 6.33598C14.2354 6.6055 14.9413 6.58337 15.6569 6.58337V4.08337ZM11.9445 5.04569C12.4505 5.55163 12.934 6.06647 13.5847 6.33598L14.5414 4.02628C14.457 3.99132 14.3625 3.9281 13.7123 3.27792L11.9445 5.04569ZM3.25 5.33337C3.25 4.35523 3.25265 3.74736 3.31208 3.30539C3.36666 2.89937 3.44774 2.82498 3.46967 2.80304L1.7019 1.03528C1.13805 1.59913 0.926229 2.28903 0.83437 2.97227C0.747345 3.61955 0.75 4.4259 0.75 5.33337H3.25ZM6 0.083374C5.09253 0.083374 4.28618 0.0807194 3.6389 0.167744C2.95566 0.259603 2.26576 0.471423 1.7019 1.03528L3.46967 2.80304C3.4916 2.78111 3.566 2.70004 3.97202 2.64545C4.41399 2.58603 5.02185 2.58337 6 2.58337V0.083374ZM20.75 16.6667C20.75 17.8173 19.8173 18.75 18.6667 18.75V21.25C21.198 21.25 23.25 19.198 23.25 16.6667H20.75ZM18.6667 18.75C17.5161 18.75 16.5833 17.8173 16.5833 16.6667H14.0833C14.0833 19.198 16.1354 21.25 18.6667 21.25V18.75ZM16.5833 16.6667C16.5833 15.5161 17.5161 14.5834 18.6667 14.5834V12.0834C16.1354 12.0834 14.0833 14.1354 14.0833 16.6667H16.5833ZM18.6667 14.5834C19.8173 14.5834 20.75 15.5161 20.75 16.6667H23.25C23.25 14.1354 21.198 12.0834 18.6667 12.0834V14.5834ZM21.7828 21.5506L23.7828 23.5506L25.5505 21.7828L23.5505 19.7828L21.7828 21.5506Z" fill="#696969"/>
</svg>
